<svg id="Layer_1" data-name="Layer 1" xmlns="http://www.w3.org/2000/svg" width="64" height="64" viewBox="0 0 64 64"><title>444</title><path d="M49.49,13.26L35.22,17.53V41a7.15,7.15,0,0,0-3.44-.72,11,11,0,0,0-3.73.67,6.62,6.62,0,0,0-4.22,6.14c0,2.25,1.94,4.59,6.2,4.59a8.64,8.64,0,0,0,7.4-4.79,12.12,12.12,0,0,0,.65-4.08V24.65L49.49,21.8V13.26Z"/><path d="M30.37,31.62H13.65V35.1H30.37V31.62h0Z"/><path d="M30.37,25.17H13.65v3.48H30.37V25.17h0Z"/><path d="M30.37,18.72H13.65V22.2H30.37V18.72h0Z"/><path d="M6,6V58H58V6H6ZM55.69,55.69H8.31V8.31H55.69V55.69Z"/></svg>