<?xml version="1.0" encoding="utf-8"?>
<!-- Generator: Adobe Illustrator 15.1.0, SVG Export Plug-In . SVG Version: 6.00 Build 0)  -->
<!DOCTYPE svg PUBLIC "-//W3C//DTD SVG 1.1//EN" "http://www.w3.org/Graphics/SVG/1.1/DTD/svg11.dtd">
<svg version="1.1" id="Layer_1" xmlns="http://www.w3.org/2000/svg" xmlns:xlink="http://www.w3.org/1999/xlink" x="0px" y="0px"
	 width="64px" height="64px" viewBox="0 0 64 64" enable-background="new 0 0 64 64" xml:space="preserve">
<path id="films" fill="#666666" d="M6,12v42h50V12H6z M16,14h30v18H16V14z M8,14h6v6H8V14z M8,22h6v6H8V22z M8,30h6v6H8V30z M8,38h6
	v6H8V38z M14,52H8v-6h6V52z M46,52H16V34h30V52z M54,52h-6v-6h6V52z M54,44h-6v-6h6V44z M54,36h-6v-6h6V36z M54,28h-6v-6h6V28z
	 M48,20v-6h6v6H48z"/>
</svg>
