<svg id="Layer_1" data-name="Layer 1" xmlns="http://www.w3.org/2000/svg" width="64" height="64" viewBox="0 0 64 64"><defs><style>.cls-1{fill:#666;}</style></defs><title>iphone</title><path class="cls-1" d="M20,60H44a4,4,0,0,0,4-4V8a4,4,0,0,0-4-4H20a4,4,0,0,0-4,4V56A4,4,0,0,0,20,60ZM46,50H18V14H46V50Zm-2,8H20a2,2,0,0,1-2-2V52H46v4A2,2,0,0,1,44,58ZM20,6H44a2,2,0,0,1,2,2v4H18V8A2,2,0,0,1,20,6Z"/><path class="cls-1" d="M31,10h6a1,1,0,1,0,0-2H31A1,1,0,0,0,31,10Z"/><path class="cls-1" d="M27,10a1,1,0,0,0,.71-0.29A1,1,0,1,0,26,9,1,1,0,0,0,27,10Z"/><path class="cls-1" d="M33,54H31a1,1,0,0,0,0,2h2A1,1,0,0,0,33,54Z"/></svg>