<svg id="Layer_1" data-name="Layer 1" xmlns="http://www.w3.org/2000/svg" width="64" height="64" viewBox="0 0 64 64"><defs><style>.cls-1{fill:#666;}</style></defs><title>camera_rotate</title><path class="cls-1" d="M56,18H48a2,2,0,0,1-1.72-1,0.31,0.31,0,0,0,0-.1l-2.59-4.61A0.92,0.92,0,0,0,43.46,12,4,4,0,0,0,40,10H24a4,4,0,0,0-3.54,2.13l-2.69,4.78a0.47,0.47,0,0,0,0,.1A2,2,0,0,1,16,18H8a4,4,0,0,0-4,4V50a4,4,0,0,0,4,4H56a4,4,0,0,0,4-4V22A4,4,0,0,0,56,18Zm2,32a2,2,0,0,1-2,2H8a2,2,0,0,1-2-2V22a2,2,0,0,1,2-2h8a4,4,0,0,0,3.53-2.12s0,0,0-.08l2.65-4.71A2,2,0,0,1,24,12H40a2,2,0,0,1,1.79,1.11l2.63,4.68a0.2,0.2,0,0,0,0,.08A4,4,0,0,0,48,20h8a2,2,0,0,1,2,2V50Z"/><path class="cls-1" d="M48.29,31.29L46,33.6A14,14,0,0,0,22.3,23.9a1,1,0,1,0,1.38,1.44A12,12,0,0,1,44,33.56l-2.27-2.27A1,1,0,1,0,40.3,32.7l4,4a1,1,0,0,0,.7.3,1,1,0,0,0,.71-0.29l4-4a1,1,0,0,0,0-1.41A1,1,0,0,0,48.29,31.29Z"/><path class="cls-1" d="M40.49,42.49A12,12,0,0,1,20,34.44l2.27,2.27a1,1,0,0,0,1.42,0,1,1,0,0,0,0-1.41l-4-4a1,1,0,0,0-1.41,0l-4,4a1,1,0,1,0,1.41,1.41L18,34.4A14,14,0,0,0,41.9,43.9,1,1,0,0,0,40.49,42.49Z"/></svg>