<svg id="Layer_1" data-name="Layer 1" xmlns="http://www.w3.org/2000/svg" width="64" height="64" viewBox="0 0 64 64"><defs><style>.cls-1{fill:#666;}</style></defs><title>iphone_iphone</title><path class="cls-1" d="M16,60H32a4,4,0,0,0,4-4V22a4,4,0,0,0-4-4H16a4,4,0,0,0-4,4V56A4,4,0,0,0,16,60ZM34,50H14V28H34V50Zm-2,8H16a2,2,0,0,1-2-2V52H34v4A2,2,0,0,1,32,58ZM16,20H32a2,2,0,0,1,2,2v4H14V22A2,2,0,0,1,16,20Z"/><path class="cls-1" d="M23,24h6a1,1,0,0,0,0-2H23A1,1,0,0,0,23,24Z"/><path class="cls-1" d="M19,24a1,1,0,1,0-1-1,1,1,0,0,0,.29.71A1.05,1.05,0,0,0,19,24Z"/><path class="cls-1" d="M25,54H23a1,1,0,0,0,0,2h2A1,1,0,0,0,25,54Z"/><path class="cls-1" d="M29,16a1,1,0,0,0,1-1V14H50V36H39a1,1,0,0,0,0,2H50v4a2,2,0,0,1-2,2H39a1,1,0,0,0,0,2h9a4,4,0,0,0,4-4V8a4,4,0,0,0-4-4H32a4,4,0,0,0-4,4v7A1,1,0,0,0,29,16ZM32,6H48a2,2,0,0,1,2,2v4H30V8A2,2,0,0,1,32,6Z"/><path class="cls-1" d="M39,10h6a1,1,0,1,0,0-2H39A1,1,0,0,0,39,10Z"/><path class="cls-1" d="M35,10a1,1,0,0,0,.71-1.71,1,1,0,0,0-1.42,1.42A1.05,1.05,0,0,0,35,10Z"/><path class="cls-1" d="M43,42a1,1,0,0,0,0-2H41a1,1,0,0,0,0,2h2Z"/></svg>