<svg id="Layer_1" data-name="Layer 1" xmlns="http://www.w3.org/2000/svg" width="64" height="64" viewBox="0 0 64 64"><defs><style>.cls-1{fill:#666;}</style></defs><title>bullet_list</title><path class="cls-1" d="M9,20a5,5,0,1,0-5-5A5,5,0,0,0,9,20Zm0-8a3,3,0,1,1-3,3A3,3,0,0,1,9,12Z"/><path class="cls-1" d="M9,38a5,5,0,1,0-5-5A5,5,0,0,0,9,38Zm0-8a3,3,0,1,1-3,3A3,3,0,0,1,9,30Z"/><path class="cls-1" d="M9,56a5,5,0,1,0-5-5A5,5,0,0,0,9,56Zm0-8a3,3,0,1,1-3,3A3,3,0,0,1,9,48Z"/><path class="cls-1" d="M59,14H21a1,1,0,0,0,0,2H59A1,1,0,0,0,59,14Z"/><path class="cls-1" d="M59,32H21a1,1,0,0,0,0,2H59A1,1,0,0,0,59,32Z"/><path class="cls-1" d="M59,50H21a1,1,0,0,0,0,2H59A1,1,0,0,0,59,50Z"/></svg>