<?xml version="1.0" encoding="utf-8"?>
<!-- Generator: Adobe Illustrator 19.2.1, SVG Export Plug-In . SVG Version: 6.00 Build 0)  -->
<svg version="1.1" id="Layer_1" xmlns="http://www.w3.org/2000/svg" xmlns:xlink="http://www.w3.org/1999/xlink" x="0px" y="0px"
	 viewBox="0 0 64 64" style="enable-background:new 0 0 64 64;" xml:space="preserve">
<style type="text/css">
	.st0{fill:#666666;}
</style>
<path id="albums" class="st0" d="M58,56H4V16h54V56z M6,54h50V18H6V54z M8,12h46v2H8V12z M12,8h38v2H12V8z"/>
<path id="music_note" class="st0" d="M41.1,23.2c-0.1-0.1-0.3-0.1-0.4-0.1l-17.2,3c-0.2,0-0.4,0.3-0.4,0.5v15.7c0,0.6-0.5,1-1,1
	h-2.5c-2.7,0-4.6,1.4-4.6,3.5s1.8,3.5,4.6,3.5S24,49.1,24,47V33.2l16.2-2.9v9c0,0.6-0.5,1-1,1h-2.5c-2.7,0-4.6,1.4-4.6,3.5
	s1.8,3.5,4.6,3.5c2.7,0,4.6-1.4,4.6-3.5V23.6C41.2,23.5,41.2,23.3,41.1,23.2z"/>
</svg>
